<svg xmlns="http://www.w3.org/2000/svg" xmlns:svg="http://www.w3.org/2000/svg" id="svg2" width="126.313" height="130.625" version="1.1"><metadata id="metadata16"/><g id="g3218" transform="translate(-34.625,-26.043364)"><g id="g3204" transform="matrix(1,0,0,0.65404409,0,31.602739)"><g id="g2995"><g id="g3837"><path style="fill:#fff;stroke:#999;stroke-width:2" id="path4" d="M 123.94492,10.000001 H 35.944917 V 174 H 159.94492 V 46.000001 z m 0,0 v 36 h 36"/></g><g id="g3828" transform="translate(0.78389831,0)" style="fill:#b3b3b3"><rect id="rect3773" width="91.716" height="9.407" x="50.169" y="49.386" rx="5.08" ry="1.199" style="fill:#b3b3b3;fill-opacity:1;stroke:none"/><rect id="rect3773-1" width="91.716" height="9.407" x="50.169" y="66.239" rx="5.08" ry="1.199" style="fill:#b3b3b3;fill-opacity:1;stroke:none"/><rect id="rect3773-7" width="91.716" height="9.407" x="50.169" y="83.093" rx="5.08" ry="1.199" style="fill:#b3b3b3;fill-opacity:1;stroke:none"/><rect id="rect3773-4" width="91.716" height="9.407" x="50.169" y="99.947" rx="5.08" ry="1.199" style="fill:#b3b3b3;fill-opacity:1;stroke:none"/><rect id="rect3773-0" width="91.716" height="9.407" x="50.169" y="116.801" rx="5.08" ry="1.199" style="fill:#b3b3b3;fill-opacity:1;stroke:none"/><rect id="rect3773-9" width="91.716" height="9.407" x="50.169" y="133.655" rx="5.08" ry="1.199" style="fill:#b3b3b3;fill-opacity:1;stroke:none"/><rect id="rect3773-48" width="91.716" height="9.407" x="50.169" y="150.508" rx="5.08" ry="1.199" style="fill:#b3b3b3;fill-opacity:1;stroke:none"/></g></g><path id="path3767" d="m 37.652383,174.13258 93.045527,16.07449 0,-197.716071 -95.209368,16.0744767 z" style="fill:navy;stroke:#000;stroke-width:1.68231452px;stroke-linecap:butt;stroke-linejoin:miter;stroke-opacity:1"/></g><path id="path3097" d="m 102.46661,128.01975 c 0,0 16.75082,-70.076171 16.75082,-70.076171 0,0 -14.16445,1.357173 -14.16445,1.357173 0,0 -9.985272,47.162618 -9.985272,47.162618 0,0 -10.836033,-45.167614 -10.836033,-45.167614 0,0 -13.62302,1.305296 -13.62302,1.305296 0,0 -9.396635,43.563038 -9.396635,43.563038 0,0 -7.656524,-41.92908 -7.656524,-41.92908 0,0 -9.722087,0.931526 -9.722087,0.931526 0,0 11.600993,58.786694 11.600993,58.786694 0,0 10.960572,0.94768 10.960572,0.94768 0,0 11.06031,-46.742112 11.06031,-46.742112 0,0 11.357111,48.680372 11.357111,48.680372 0,0 13.654215,1.18058 13.654215,1.18058" style="font-size:89.32484436px;font-style:normal;font-weight:700;line-height:125%;letter-spacing:0;word-spacing:0;fill:#fff;fill-opacity:1;stroke:none;font-family:Sans;-inkscape-font-specification:Sans Bold"/></g></svg>