<?xml version="1.0" encoding="UTF-8" standalone="no"?>
<svg
   xmlns:dc="http://purl.org/dc/elements/1.1/"
   xmlns:cc="http://creativecommons.org/ns#"
   xmlns:rdf="http://www.w3.org/1999/02/22-rdf-syntax-ns#"
   xmlns:svg="http://www.w3.org/2000/svg"
   xmlns="http://www.w3.org/2000/svg"
   xmlns:sodipodi="http://sodipodi.sourceforge.net/DTD/sodipodi-0.dtd"
   xmlns:inkscape="http://www.inkscape.org/namespaces/inkscape"
   width="126.3125"
   height="130.62486"
   id="svg2"
   version="1.1"
   inkscape:version="0.48.4 r9939"
   sodipodi:docname="application.svg">
  <sodipodi:namedview
     pagecolor="#ffffff"
     bordercolor="#666666"
     borderopacity="1"
     objecttolerance="10"
     gridtolerance="10"
     guidetolerance="10"
     inkscape:pageopacity="0"
     inkscape:pageshadow="2"
     inkscape:window-width="1361"
     inkscape:window-height="757"
     id="namedview12"
     showgrid="false"
     inkscape:zoom="1.2756757"
     inkscape:cx="-85.186439"
     inkscape:cy="64.168234"
     inkscape:window-x="78"
     inkscape:window-y="100"
     inkscape:window-maximized="0"
     inkscape:current-layer="svg2"
     fit-margin-top="0"
     fit-margin-left="0"
     fit-margin-right="0"
     fit-margin-bottom="0" />
  <metadata
     id="metadata16">
    <rdf:RDF>
      <cc:Work
         rdf:about="">
        <dc:format>image/svg+xml</dc:format>
        <dc:type
           rdf:resource="http://purl.org/dc/dcmitype/StillImage" />
      </cc:Work>
    </rdf:RDF>
  </metadata>
  <defs
     id="defs14" />
  <g
     id="g3218"
     transform="translate(-34.625,-26.043364)">
    <g
       transform="matrix(1,0,0,0.65404409,0,31.602739)"
       id="g3204">
      <g
         id="g2995">
        <g
           id="g3837">
          <path
             style="fill:#ffffff;stroke:#999999;stroke-width:2"
             inkscape:connector-curvature="0"
             id="path4"
             d="M 123.94492,10.000001 H 35.944917 V 174 H 159.94492 V 46.000001 z m 0,0 v 36 h 36" />
        </g>
        <g
           id="g3828"
           style="fill:#b3b3b3"
           transform="translate(0.78389831,0)">
          <rect
             ry="1.1985404"
             rx="5.0800104"
             y="49.385593"
             x="50.169498"
             height="9.4067793"
             width="91.716103"
             id="rect3773"
             style="fill:#b3b3b3;fill-opacity:1;stroke:none" />
          <rect
             ry="1.1985404"
             rx="5.0800104"
             y="66.239403"
             x="50.169498"
             height="9.4067793"
             width="91.716103"
             id="rect3773-1"
             style="fill:#b3b3b3;fill-opacity:1;stroke:none" />
          <rect
             ry="1.1985404"
             rx="5.0800104"
             y="83.093216"
             x="50.169498"
             height="9.4067793"
             width="91.716103"
             id="rect3773-7"
             style="fill:#b3b3b3;fill-opacity:1;stroke:none" />
          <rect
             ry="1.1985404"
             rx="5.0800104"
             y="99.947029"
             x="50.169498"
             height="9.4067793"
             width="91.716103"
             id="rect3773-4"
             style="fill:#b3b3b3;fill-opacity:1;stroke:none" />
          <rect
             ry="1.1985404"
             rx="5.0800104"
             y="116.80084"
             x="50.169498"
             height="9.4067793"
             width="91.716103"
             id="rect3773-0"
             style="fill:#b3b3b3;fill-opacity:1;stroke:none" />
          <rect
             ry="1.1985404"
             rx="5.0800104"
             y="133.65466"
             x="50.169498"
             height="9.4067793"
             width="91.716103"
             id="rect3773-9"
             style="fill:#b3b3b3;fill-opacity:1;stroke:none" />
          <rect
             ry="1.1985404"
             rx="5.0800104"
             y="150.50847"
             x="50.169498"
             height="9.4067793"
             width="91.716103"
             id="rect3773-48"
             style="fill:#b3b3b3;fill-opacity:1;stroke:none" />
        </g>
      </g>
      <path
         inkscape:connector-curvature="0"
         id="path3767"
         d="m 37.652383,174.13258 93.045527,16.07449 0,-197.716071 -95.209368,16.0744767 z"
         style="fill:#000080;stroke:#000000;stroke-width:1.68231452px;stroke-linecap:butt;stroke-linejoin:miter;stroke-opacity:1" />
    </g>
    <path
       inkscape:connector-curvature="0"
       id="path3097"
       style="font-size:89.32484436px;font-style:normal;font-weight:bold;line-height:125%;letter-spacing:0px;word-spacing:0px;fill:#ffffff;fill-opacity:1;stroke:none;font-family:Sans;-inkscape-font-specification:Sans Bold"
       d="m 102.46661,128.01975 c 0,0 16.75082,-70.076171 16.75082,-70.076171 0,0 -14.16445,1.357173 -14.16445,1.357173 0,0 -9.985272,47.162618 -9.985272,47.162618 0,0 -10.836033,-45.167614 -10.836033,-45.167614 0,0 -13.62302,1.305296 -13.62302,1.305296 0,0 -9.396635,43.563038 -9.396635,43.563038 0,0 -7.656524,-41.92908 -7.656524,-41.92908 0,0 -9.722087,0.931526 -9.722087,0.931526 0,0 11.600993,58.786694 11.600993,58.786694 0,0 10.960572,0.94768 10.960572,0.94768 0,0 11.06031,-46.742112 11.06031,-46.742112 0,0 11.357111,48.680372 11.357111,48.680372 0,0 13.654215,1.18058 13.654215,1.18058" />
  </g>
</svg>
