<?xml version="1.0" encoding="UTF-8" standalone="no"?>
<svg
   xmlns:dc="http://purl.org/dc/elements/1.1/"
   xmlns:cc="http://creativecommons.org/ns#"
   xmlns:rdf="http://www.w3.org/1999/02/22-rdf-syntax-ns#"
   xmlns:svg="http://www.w3.org/2000/svg"
   xmlns="http://www.w3.org/2000/svg"
   xmlns:sodipodi="http://sodipodi.sourceforge.net/DTD/sodipodi-0.dtd"
   xmlns:inkscape="http://www.inkscape.org/namespaces/inkscape"
   height="80px"
   id="Capa_1"
   style="enable-background:new 0 0 80 80;"
   version="1.1"
   viewBox="0 0 80 80"
   width="80px"
   xml:space="preserve"
   inkscape:version="0.48.4 r9939"
   sodipodi:docname="restore.svg"><metadata
     id="metadata41"><rdf:RDF><cc:Work
         rdf:about=""><dc:format>image/svg+xml</dc:format><dc:type
           rdf:resource="http://purl.org/dc/dcmitype/StillImage" /><dc:title /></cc:Work></rdf:RDF></metadata><defs
     id="defs39" /><sodipodi:namedview
     pagecolor="#ffffff"
     bordercolor="#666666"
     borderopacity="1"
     objecttolerance="10"
     gridtolerance="10"
     guidetolerance="10"
     inkscape:pageopacity="0"
     inkscape:pageshadow="2"
     inkscape:window-width="734"
     inkscape:window-height="480"
     id="namedview37"
     showgrid="false"
     inkscape:zoom="2.95"
     inkscape:cx="97.288136"
     inkscape:cy="40"
     inkscape:window-x="364"
     inkscape:window-y="78"
     inkscape:window-maximized="0"
     inkscape:current-layer="Capa_1" /><g
     id="g3"
     transform="matrix(0.65677966,0,0,0.65677966,13.559322,13.220339)"
     style="fill:#4d4d4d"><path
       d="M 70,0 H 29.9 C 24.4,0 20,4.4 20,9.9 V 50 c 0,5.5 4.5,10 10,10 h 40 c 5.5,0 10,-4.5 10,-10 V 10 C 80,4.5 75.5,0 70,0 z m 0,50 H 30 V 10 H 70 V 50 z M 10,40 H 0 v 30 c 0,5.5 4.5,10 10,10 H 40 V 70 H 10 V 40 z"
       id="path5"
       inkscape:connector-curvature="0"
       style="fill:#4d4d4d" /></g><g
     id="g7" /><g
     id="g9" /><g
     id="g11" /><g
     id="g13" /><g
     id="g15" /><g
     id="g17" /><g
     id="g19" /><g
     id="g21" /><g
     id="g23" /><g
     id="g25" /><g
     id="g27" /><g
     id="g29" /><g
     id="g31" /><g
     id="g33" /><g
     id="g35" /><rect
     style="fill:none;fill-opacity:1;stroke:none"
     id="rect2998"
     width="80.338982"
     height="80"
     x="0"
     y="0.67796612"
     rx="5.0800104"
     ry="0.78389829" /></svg>