<svg xmlns="http://www.w3.org/2000/svg" xmlns:svg="http://www.w3.org/2000/svg" id="Capa_1" width="80" height="80" version="1.1" viewBox="0 0 80 80" xml:space="preserve" style="enable-background:new 0 0 80 80"><metadata id="metadata41"/><g id="g3" transform="matrix(0.65677966,0,0,0.65677966,13.559322,13.220339)" style="fill:#4d4d4d"><path id="path5" d="M 70,0 H 29.9 C 24.4,0 20,4.4 20,9.9 V 50 c 0,5.5 4.5,10 10,10 h 40 c 5.5,0 10,-4.5 10,-10 V 10 C 80,4.5 75.5,0 70,0 z m 0,50 H 30 V 10 H 70 V 50 z M 10,40 H 0 v 30 c 0,5.5 4.5,10 10,10 H 40 V 70 H 10 V 40 z" style="fill:#4d4d4d"/></g><rect style="fill:none;fill-opacity:1;stroke:none" id="rect2998" width="80.339" height="80" x="0" y=".678" rx="5.08" ry=".784"/></svg>